<svg fill="none" xmlns="http://www.w3.org/2000/svg">

    <symbol id="logo-h" viewBox="0 0 873 1000">
        <g clip-path="url(#clip0_22728_11351)">
        <path fill-rule="evenodd" clip-rule="evenodd" d="M306.774 425.531H540.779C608.001 425.531 664.103 454.208 698.986 502.665C733.843 551.126 734.918 631.984 714.591 695.241L688.603 775.999C677.75 809.719 626.932 969.19 617.021 999.999H489.361C489.361 999.999 491.313 1001.71 597.956 670.212C607.372 640.958 612.748 593.473 597.956 572.936C583.189 552.403 558.273 540.25 525.304 540.25H334.024C296.466 540.25 263.182 564.677 251.563 600.757L306.774 425.531Z" fill="url(#paint0_linear_22728_11351)"/>
        <path fill-rule="evenodd" clip-rule="evenodd" d="M124.336 1000H-0.462402C105.755 666.469 213.178 333.33 320.023 0H444.65C444.125 1.66705 443.593 3.33854 443.053 5.01434C270.17 536.959 329.143 357.318 124.336 1000Z" fill="#F0145A"/>
        </g>
        <defs>
        <linearGradient id="paint0_linear_22728_11351" x1="653.095" y1="999.998" x2="336.049" y2="646.678" gradientUnits="userSpaceOnUse">
        <stop stop-color="#F0145A"/>
        <stop offset="1" stop-color="#693264"/>
        </linearGradient>
        </defs>
    </symbol>

    <symbol id="logo-full" viewBox="0 0 130 60">
        <path d="M4.95672 0H0V35.7986H4.95672V22.5177C4.95672 20.2709 5.51557 18.4984 6.63326 17.2502C7.75095 16.002 9.2817 15.353 11.1769 15.353C12.8049 15.353 14.1655 15.9521 15.2589 17.1004C16.3523 18.2738 16.9112 19.7466 16.9112 21.5191V35.8236H21.8922V21.5191C21.8922 18.2238 20.9932 15.6276 19.1951 13.6804C17.3971 11.7332 15.0402 10.7596 12.1731 10.7596C11.347 10.7596 10.5209 10.8594 9.71906 11.0841C8.89294 11.3088 8.2369 11.5584 7.70235 11.833C7.16781 12.1076 6.65756 12.4072 6.1959 12.7567C5.73424 13.1062 5.41838 13.3558 5.27259 13.5056C5.1268 13.6554 5.00532 13.7552 4.95672 13.8301V0Z" fill="#F0145A"/>
        <path d="M32.9727 0H27.8628V35.7689H32.9727V0Z" fill="white"/>
        <path d="M63.1115 25.2935L63.367 22.7386C63.367 19.315 62.2428 16.4535 59.9434 14.1541C57.6439 11.8546 54.7824 10.7305 51.3588 10.7305C47.9352 10.7305 44.9715 11.9568 42.5188 14.4096C40.0661 16.8623 38.8397 19.7749 38.8397 23.2496C38.8397 26.8265 40.1172 29.8924 42.621 32.4473C45.1248 35.0022 48.1396 36.2797 51.6143 36.2797C52.9429 36.2797 54.1692 36.0753 55.3956 35.7176C56.622 35.3088 57.6439 34.9 58.3593 34.4912C59.1258 34.0313 59.8923 33.5204 60.5565 32.9583C61.2208 32.3962 61.6807 31.9874 61.8851 31.7319C62.0895 31.4764 62.2428 31.3231 62.345 31.1698L59.0236 27.8484L58.2571 28.8193C57.7461 29.4325 56.8775 30.0457 55.6511 30.7099C54.3736 31.3742 53.0451 31.6808 51.6143 31.6808C49.6215 31.6808 47.9352 31.0676 46.5045 29.7902C45.0737 28.5127 44.2051 27.0309 43.9496 25.2935H63.1115ZM51.3588 15.0738C53.2495 15.0738 54.7824 15.6359 56.0599 16.709C57.2862 17.8331 58.0527 19.2128 58.3593 20.9501H44.154C44.6138 19.2128 45.4314 17.8331 46.7089 16.709C47.9352 15.6359 49.5193 15.0738 51.3588 15.0738Z" fill="white"/>
        <path d="M86.9429 34.2868C86.9429 36.5351 86.2786 38.3747 84.899 39.8054C83.5704 41.1851 81.8842 41.9005 79.7891 41.9005C78.8694 41.9005 77.9496 41.7472 77.0809 41.4917C76.2122 41.2362 75.548 40.9296 74.9859 40.5719C74.4238 40.2142 73.9128 39.8565 73.4018 39.3967C72.9419 38.9368 72.6354 38.6302 72.4821 38.4769C72.3288 38.3236 72.2266 38.1703 72.1244 38.0681L68.803 41.3895L69.2118 41.9005C69.4673 42.2582 69.9271 42.718 70.5403 43.229C71.1535 43.6889 71.8689 44.1999 72.6865 44.7109C73.504 45.1708 74.526 45.5796 75.8035 45.9372C77.0809 46.2949 78.4095 46.4993 79.7891 46.4993C83.2638 46.4993 86.1253 45.3241 88.5269 42.9735C90.8775 40.5719 92.0527 37.7104 92.0527 34.2357V11.2415H86.9429V13.7964L86.0742 13.0299C85.5121 12.5189 84.6435 12.0079 83.4171 11.4969C82.1907 10.986 80.8622 10.7305 79.5336 10.7305C76.4166 10.7305 73.7595 11.9057 71.4601 14.3074C69.1607 16.709 68.0365 19.5705 68.0365 22.9941C68.0365 26.4177 69.1607 29.2792 71.4601 31.6808C73.7595 34.0824 76.4166 35.2577 79.5336 35.2577C80.4023 35.2577 81.2199 35.1555 82.0885 34.9511C82.9061 34.6956 83.5704 34.4401 84.1325 34.1846C84.6946 33.9291 85.2055 33.6225 85.6654 33.2648C86.1253 32.9072 86.483 32.6517 86.5852 32.5495L86.9429 32.1918V34.2868ZM73.1463 22.9941C73.1463 20.8479 73.8106 19.0595 75.1903 17.5777C76.5699 16.0958 78.2051 15.3293 80.0446 15.3293C81.8842 15.3293 83.5193 16.0958 84.899 17.5777C86.2275 19.0595 86.9429 20.8479 86.9429 22.9941C86.9429 25.1402 86.2275 26.9287 84.899 28.4105C83.5193 29.8924 81.8842 30.6588 80.0446 30.6588C78.2051 30.6588 76.5699 29.8924 75.1903 28.4105C73.8106 26.9287 73.1463 25.1402 73.1463 22.9941Z" fill="white"/>
        <path d="M118.724 35.7687V19.9282C118.724 17.3222 117.753 15.1249 115.863 13.3876C113.972 11.5991 111.519 10.7305 108.504 10.7305C107.329 10.7305 106.154 10.8838 105.03 11.1904C103.906 11.548 102.986 11.9057 102.322 12.3145C101.657 12.7233 100.993 13.1832 100.38 13.7453C99.7666 14.2563 99.409 14.6139 99.2046 14.8183C99.0513 15.0227 98.898 15.176 98.7958 15.3293L102.117 18.6507L102.781 17.782C103.19 17.22 103.906 16.709 104.979 16.1469C106.052 15.5848 107.227 15.3293 108.504 15.3293C109.986 15.3293 111.213 15.7892 112.184 16.6579C113.154 17.5266 113.614 18.6507 113.614 19.9282L104.672 21.4611C102.475 21.8188 100.686 22.6875 99.46 24.0672C98.1826 25.4468 97.5183 27.1331 97.5183 29.1259C97.5183 31.0165 98.3359 32.6517 99.971 34.0824C101.657 35.5643 103.701 36.2797 106.205 36.2797C107.074 36.2797 107.891 36.1775 108.709 35.922C109.578 35.7176 110.242 35.4621 110.804 35.2066C111.366 34.9511 111.877 34.6445 112.337 34.2868C112.797 33.9291 113.103 33.6736 113.308 33.5715C113.461 33.4182 113.563 33.2649 113.614 33.2138V35.7687H118.724ZM106.972 31.6808C105.643 31.6808 104.57 31.3742 103.803 30.761C102.986 30.1479 102.628 29.4325 102.628 28.6149C102.628 27.7462 102.884 26.9798 103.446 26.4177C104.008 25.8556 104.774 25.4468 105.694 25.2935L113.614 24.0161V24.527C113.614 26.8265 113.052 28.5638 111.877 29.8413C110.702 31.0676 109.067 31.6808 106.972 31.6808Z" fill="white"/>
        <path d="M130 0H124.89V35.7689H130V0Z" fill="white"/>
        <path d="M0 53.1185H1.59915V58.7253H5.06396V60.0283H0V53.1185Z" fill="white"/>
        <path d="M15.5016 58.5477H12.2934L11.6814 60.0283H10.0428L13.1226 53.1185H14.702L17.7917 60.0283H16.1136L15.5016 58.5477ZM14.9982 57.3335L13.9025 54.688L12.8067 57.3335H14.9982Z" fill="white"/>
        <path d="M33.5121 53.1185L31.2516 60.0283H29.534L28.0138 55.3494L26.4443 60.0283H24.7366L22.4662 53.1185H24.1245L25.6842 57.9751L27.313 53.1185H28.7937L30.3731 58.0146L31.9821 53.1185H33.5121Z" fill="white"/>
        <path d="M50.5232 60.1468C49.819 60.1468 49.1807 59.9954 48.6082 59.6927C48.0422 59.3834 47.5947 58.959 47.2657 58.4193C46.9432 57.8731 46.782 57.2578 46.782 56.5734C46.782 55.889 46.9432 55.277 47.2657 54.7373C47.5947 54.1911 48.0422 53.7667 48.6082 53.464C49.1807 53.1547 49.8223 53 50.5331 53C51.1319 53 51.6716 53.1053 52.152 53.3159C52.6389 53.5265 53.047 53.8292 53.376 54.224L52.3494 55.1717C51.8821 54.6321 51.303 54.3622 50.612 54.3622C50.1843 54.3622 49.8026 54.4577 49.467 54.6485C49.1313 54.8328 48.8681 55.0927 48.6773 55.4283C48.493 55.764 48.4009 56.1456 48.4009 56.5734C48.4009 57.0012 48.493 57.3828 48.6773 57.7185C48.8681 58.0541 49.1313 58.3173 49.467 58.5082C49.8026 58.6924 50.1843 58.7846 50.612 58.7846C51.303 58.7846 51.8821 58.5115 52.3494 57.9653L53.376 58.9129C53.047 59.3143 52.6389 59.6203 52.152 59.8309C51.665 60.0415 51.1221 60.1468 50.5232 60.1468Z" fill="white"/>
        <path d="M62.5933 60.1468C61.876 60.1468 61.2278 59.9922 60.6487 59.6829C60.0761 59.3736 59.6253 58.9491 59.2963 58.4095C58.9738 57.8632 58.8126 57.2512 58.8126 56.5734C58.8126 55.8956 58.9738 55.2868 59.2963 54.7472C59.6253 54.201 60.0761 53.7733 60.6487 53.464C61.2278 53.1547 61.876 53 62.5933 53C63.3106 53 63.9555 53.1547 64.5281 53.464C65.1006 53.7733 65.5514 54.201 65.8804 54.7472C66.2095 55.2868 66.374 55.8956 66.374 56.5734C66.374 57.2512 66.2095 57.8632 65.8804 58.4095C65.5514 58.9491 65.1006 59.3736 64.5281 59.6829C63.9555 59.9922 63.3106 60.1468 62.5933 60.1468ZM62.5933 58.7846C63.0013 58.7846 63.3698 58.6924 63.6989 58.5082C64.0279 58.3173 64.2846 58.0541 64.4688 57.7185C64.6597 57.3828 64.7551 57.0012 64.7551 56.5734C64.7551 56.1456 64.6597 55.764 64.4688 55.4283C64.2846 55.0927 64.0279 54.8328 63.6989 54.6485C63.3698 54.4577 63.0013 54.3622 62.5933 54.3622C62.1853 54.3622 61.8168 54.4577 61.4877 54.6485C61.1587 54.8328 60.8987 55.0927 60.7079 55.4283C60.5236 55.764 60.4315 56.1456 60.4315 56.5734C60.4315 57.0012 60.5236 57.3828 60.7079 57.7185C60.8987 58.0541 61.1587 58.3173 61.4877 58.5082C61.8168 58.6924 62.1853 58.7846 62.5933 58.7846Z" fill="white"/>
        <path d="M78.7995 60.0283L78.7896 55.8824L76.7561 59.2979H76.0355L74.0119 55.9713V60.0283H72.5115V53.1185H73.8342L76.4205 57.4125L78.9673 53.1185H80.2802L80.2999 60.0283H78.7995Z" fill="white"/>
        <path d="M89.8659 53.1185C90.478 53.1185 91.0077 53.2205 91.4552 53.4245C91.9093 53.6285 92.2581 53.918 92.5016 54.2931C92.7451 54.6682 92.8668 55.1125 92.8668 55.6258C92.8668 56.1325 92.7451 56.5767 92.5016 56.9584C92.2581 57.3335 91.9093 57.623 91.4552 57.8271C91.0077 58.0245 90.478 58.1232 89.8659 58.1232H88.4741V60.0283H86.8749V53.1185H89.8659ZM89.7771 56.8202C90.2575 56.8202 90.6227 56.7182 90.8728 56.5142C91.1229 56.3036 91.2479 56.0074 91.2479 55.6258C91.2479 55.2375 91.1229 54.9414 90.8728 54.7373C90.6227 54.5268 90.2575 54.4215 89.7771 54.4215H88.4741V56.8202H89.7771Z" fill="white"/>
        <path d="M103.148 58.5477H99.9396L99.3276 60.0283H97.6889L100.769 53.1185H102.348L105.438 60.0283H103.76L103.148 58.5477ZM102.644 57.3335L101.549 54.688L100.453 57.3335H102.644Z" fill="white"/>
        <path d="M117.428 53.1185V60.0283H116.115L112.67 55.8331V60.0283H111.09V53.1185H112.413L115.848 57.3137V53.1185H117.428Z" fill="white"/>
        <path d="M127.315 57.5803V60.0283H125.716V57.5605L123.041 53.1185H124.739L126.585 56.1884L128.43 53.1185H130L127.315 57.5803Z" fill="white"/>
    </symbol>

    <symbol id="icon-fb" viewBox="0 0 24 25">
        <path d="M24 12.5733C24 5.90541 18.6274 0.5 12 0.5C5.37258 0.5 0 5.90541 0 12.5733C0 18.5995 4.38823 23.5943 10.125 24.5V16.0633H7.07813V12.5733H10.125V9.91343C10.125 6.88755 11.9165 5.21615 14.6576 5.21615C15.9705 5.21615 17.3438 5.45195 17.3438 5.45195V8.42313H15.8306C14.3399 8.42313 13.875 9.35379 13.875 10.3086V12.5733H17.2031L16.6711 16.0633H13.875V24.5C19.6118 23.5943 24 18.5995 24 12.5733Z" fill="white"/>
    </symbol>

    <symbol id="separator-circle" viewBox="0 0 6 7">
        <circle cx="3" cy="3.5" r="3" fill="#E6E6F0"/>
    </symbol>

    <symbol id="home-menu-scroll" viewBox="0 0 42 42">
        <g clip-path="url(#clip0_22728_11353)">
            <circle opacity="0.5" cx="21" cy="21" r="20" stroke="currentColor" stroke-width="2" fill="none"/>
            <path d="M12 18L21 27L30 18" stroke="currentColor" stroke-width="2" fill="none"/>
        </g>
        <defs>
            <clipPath id="clip0_22728_11353">
                <rect width="42" height="42" fill="currentColor"/>
            </clipPath>
        </defs>
    </symbol>

    <symbol id="services-ecommerce" viewBox="0 0 64 64">
        <path d="M23.7339 28.125C24.8379 28.125 25.7339 27.229 25.7339 26.125V18.325C25.7339 14.838 28.5709 12 32.0579 12C35.5449 12 38.3829 14.838 38.3829 18.325V26.125C38.3829 27.229 39.2779 28.125 40.3829 28.125C41.4869 28.125 42.3829 27.229 42.3829 26.125V18.325C42.3839 12.632 37.7519 8 32.0579 8C26.3659 8 21.7339 12.632 21.7339 18.325V26.125C21.7339 27.229 22.6299 28.125 23.7339 28.125Z" fill="url(#paint0_linear_22728_11376)"/>
        <path d="M55 23.6328H44.384V26.1268C44.384 28.3328 42.59 30.1268 40.384 30.1268C38.178 30.1268 36.384 28.3328 36.384 26.1268V23.6328H27.735V26.1268C27.735 28.3328 25.941 30.1268 23.735 30.1268C21.529 30.1268 19.735 28.3328 19.735 26.1268V23.6328H8.99997C8.44797 23.6328 8.10697 24.0678 8.23797 24.6038L15.236 53.1008C15.658 54.7028 17.344 56.0018 19 56.0018H45C46.658 56.0018 48.342 54.7028 48.766 53.1008L55.762 24.6038C55.893 24.0668 55.553 23.6328 55 23.6328Z" fill="url(#paint1_linear_22728_11376)"/>
        <defs>
            <linearGradient id="paint0_linear_22728_11376" x1="32.0584" y1="8" x2="32.0584" y2="28.125" gradientUnits="userSpaceOnUse">
                <stop stop-color="#EF8080"/>
                <stop offset="1" stop-color="#F0145A"/>
            </linearGradient>
            <linearGradient id="paint1_linear_22728_11376" x1="32" y1="23.6328" x2="32" y2="56.0018" gradientUnits="userSpaceOnUse">
                <stop stop-color="#EF8080"/>
                <stop offset="1" stop-color="#F0145A"/>
            </linearGradient>
        </defs>
    </symbol>

    <symbol id="services-support" viewBox="0 0 65 64">
        <path fill-rule="evenodd" clip-rule="evenodd" d="M53.7847 35.0781V52.3733C53.7847 55.4666 51.3604 58.0017 48.3966 58.0017H16.3036C13.3398 58.0017 10.9155 55.4666 10.9155 52.3733V35.0781H27.5816V42.5889L32.3501 45.7224L37.1186 42.5889V35.0781H53.7847Z" fill="url(#paint0_linear_22728_11382)"/>
        <path fill-rule="evenodd" clip-rule="evenodd" d="M29.252 35.0781V41.6866L32.35 43.7222L35.4481 41.6866V35.0781H29.252Z" fill="url(#paint1_linear_22728_11382)"/>
        <path fill-rule="evenodd" clip-rule="evenodd" d="M12.4069 15.1445H52.2934C54.1758 15.1445 55.7143 16.8526 55.7143 18.94V29.1931C55.7143 31.2805 54.1758 32.9886 52.2934 32.9886H36.6475H28.0529H12.4069C10.5245 32.9886 8.98608 31.2805 8.98608 29.1931V18.94C8.98608 16.8526 10.5245 15.1445 12.4069 15.1445Z" fill="url(#paint2_linear_22728_11382)"/>
        <path fill-rule="evenodd" clip-rule="evenodd" d="M24.0455 5.95312H40.655C42.1982 5.95312 43.461 7.21592 43.461 8.75908V13.1365H39.9035V10.5496C39.9035 9.85225 39.3333 9.27975 38.6359 9.27975H26.0645C25.3672 9.27975 24.797 9.85225 24.797 10.5496V13.1365H21.2395V8.75908C21.2395 7.21592 22.5023 5.95312 24.0455 5.95312Z" fill="url(#paint3_linear_22728_11382)"/>
        <defs>
            <linearGradient id="paint0_linear_22728_11382" x1="32.3501" y1="35.0781" x2="32.3501" y2="58.0017" gradientUnits="userSpaceOnUse">
                <stop stop-color="#EF8080"/>
                <stop offset="1" stop-color="#F0145A"/>
            </linearGradient>
            <linearGradient id="paint1_linear_22728_11382" x1="32.35" y1="35.0781" x2="32.35" y2="43.7222" gradientUnits="userSpaceOnUse">
                <stop stop-color="#EF8080"/>
                <stop offset="1" stop-color="#F0145A"/>
            </linearGradient>
            <linearGradient id="paint2_linear_22728_11382" x1="32.3502" y1="15.1445" x2="32.3502" y2="32.9886" gradientUnits="userSpaceOnUse">
                <stop stop-color="#EF8080"/>
                <stop offset="1" stop-color="#F0145A"/>
            </linearGradient>
            <linearGradient id="paint3_linear_22728_11382" x1="32.3502" y1="5.95312" x2="32.3502" y2="13.1365" gradientUnits="userSpaceOnUse">
                <stop stop-color="#EF8080"/>
                <stop offset="1" stop-color="#F0145A"/>
            </linearGradient>
        </defs>
    </symbol>

    <symbol id="services-corporate" viewBox="0 0 65 64">
        <g clip-path="url(#clip0_22728_11388)">
            <path d="M61.1932 37.7273C60.5057 37.4426 59.782 37.2982 59.0421 37.2982C57.4104 37.2982 55.9031 37.9946 54.8565 39.1615L53.6365 38.6562L50.1564 37.2147C50.6502 35.5616 50.9167 33.8113 50.9167 31.9998C50.9167 30.1883 50.6501 28.4381 50.1564 26.7849L53.6365 25.3435L54.8565 24.8381C55.9031 26.0051 57.4104 26.7014 59.0421 26.7014C59.782 26.7014 60.5057 26.5571 61.1932 26.2722C64.0586 25.0852 65.4243 21.7883 64.2373 18.9227C63.3633 16.8128 61.3229 15.4493 59.0391 15.4493C58.2992 15.4493 57.5755 15.5937 56.888 15.8786C54.6297 16.814 53.3042 19.0598 53.4242 21.3722L52.1971 21.8805L48.7181 23.3215C47.028 20.208 44.4585 17.6383 41.345 15.9483L42.786 12.4694L43.2938 11.2436C43.3921 11.2487 43.4908 11.2517 43.5898 11.2517C45.8736 11.2517 47.914 9.88836 48.7881 7.77836C49.975 4.91287 48.6094 1.61587 45.7439 0.428874C45.0563 0.144375 44.3326 0 43.5928 0C41.3089 0 39.2685 1.36337 38.3944 3.47337C37.459 5.73161 38.1098 8.25698 39.8298 9.80723L39.3233 11.0301L37.8818 14.5102C36.2286 14.0165 34.4784 13.7498 32.6669 13.7498C30.8554 13.7498 29.1052 14.0165 27.452 14.5102L26.0105 11.0301L25.504 9.80723C27.224 8.25698 27.8748 5.73161 26.9394 3.47324C26.0653 1.36337 24.0247 0 21.7409 0C21.0011 0 20.2773 0.144375 19.5898 0.429249C16.7244 1.61625 15.3587 4.91312 16.5457 7.77874C17.4197 9.88861 19.4602 11.2521 21.7439 11.2521C21.8429 11.2521 21.9416 11.2491 22.0399 11.244L22.5477 12.4697L23.9887 15.9487C20.8752 17.6388 18.3056 20.2083 16.6156 23.3218L13.1366 21.8808L11.9094 21.3726C12.0294 19.0602 10.7039 16.8143 8.4457 15.8788C7.7582 15.5941 7.03445 15.4497 6.29458 15.4497C4.01071 15.4497 1.97034 16.8131 1.09621 18.9231C-0.0906587 21.7886 1.27496 25.0856 4.14046 26.2726C4.82796 26.5573 5.55171 26.7017 6.29158 26.7017C7.92333 26.7017 9.43057 26.0053 10.4772 24.8383L11.6972 25.3437L15.1773 26.7852C14.6834 28.4383 14.4169 30.1886 14.4169 32.0001C14.4169 33.8116 14.6836 35.5618 15.1773 37.2149L11.6971 38.6562L10.4771 39.1615C9.43045 37.9946 7.9232 37.2982 6.29145 37.2982C5.55158 37.2982 4.82783 37.4426 4.14033 37.7274C1.27496 38.9144 -0.0907838 42.2113 1.09621 45.0769C1.97021 47.1868 4.01071 48.5503 6.29445 48.5503C7.03433 48.5503 7.75808 48.4059 8.44558 48.121C10.7038 47.1857 12.0293 44.9398 11.9093 42.6274L13.1364 42.1192L16.6154 40.6782C18.3056 43.7917 20.8751 46.3613 23.9885 48.0513L22.5476 51.5303L22.0398 52.756C21.9414 52.7509 21.8428 52.7479 21.7438 52.7479C19.4599 52.7479 17.4196 54.1113 16.5454 56.2213C15.3586 59.0868 16.7242 62.3838 19.5897 63.5708C20.2772 63.8555 21.0009 63.9999 21.7408 63.9999C24.0247 63.9999 26.065 62.6365 26.9392 60.5265C27.8745 58.2683 27.2238 55.7429 25.5038 54.1926L26.0103 52.9698L27.4518 49.4897C29.1049 49.9834 30.8552 50.25 32.6667 50.25C34.4781 50.25 36.2284 49.9834 37.8815 49.4897L39.323 52.9698L39.8295 54.1926C38.1095 55.7429 37.4588 58.2683 38.3941 60.5266C39.2681 62.6365 41.3086 64 43.5924 64C44.3323 64 45.056 63.8556 45.7435 63.5708C48.6089 62.3838 49.9746 59.0869 48.7876 56.2213C47.9136 54.1114 45.8731 52.7479 43.5894 52.7479C43.4904 52.7479 43.3918 52.7509 43.2934 52.756L42.7856 51.5303L41.3446 48.0513C44.4581 46.3612 47.0278 43.7917 48.7178 40.6782L52.1967 42.1192L53.4239 42.6274C53.3039 44.9398 54.6294 47.1857 56.8876 48.1212C57.5751 48.4059 58.2989 48.5503 59.0387 48.5503C61.3226 48.5503 63.363 47.1869 64.2371 45.0769C65.4243 42.2113 64.0588 38.9143 61.1932 37.7273ZM32.6669 46.4998C24.6717 46.4998 18.1669 39.995 18.1669 31.9998C18.1669 24.0046 24.6717 17.4998 32.6669 17.4998C40.6621 17.4998 47.1669 24.0046 47.1669 31.9998C47.1669 39.995 40.662 46.4998 32.6669 46.4998Z" fill="black"/>
            <path d="M61.1932 37.7273C60.5057 37.4426 59.782 37.2982 59.0421 37.2982C57.4104 37.2982 55.9031 37.9946 54.8565 39.1615L53.6365 38.6562L50.1564 37.2147C50.6502 35.5616 50.9167 33.8113 50.9167 31.9998C50.9167 30.1883 50.6501 28.4381 50.1564 26.7849L53.6365 25.3435L54.8565 24.8381C55.9031 26.0051 57.4104 26.7014 59.0421 26.7014C59.782 26.7014 60.5057 26.5571 61.1932 26.2722C64.0586 25.0852 65.4243 21.7883 64.2373 18.9227C63.3633 16.8128 61.3229 15.4493 59.0391 15.4493C58.2992 15.4493 57.5755 15.5937 56.888 15.8786C54.6297 16.814 53.3042 19.0598 53.4242 21.3722L52.1971 21.8805L48.7181 23.3215C47.028 20.208 44.4585 17.6383 41.345 15.9483L42.786 12.4694L43.2938 11.2436C43.3921 11.2487 43.4908 11.2517 43.5898 11.2517C45.8736 11.2517 47.914 9.88836 48.7881 7.77836C49.975 4.91287 48.6094 1.61587 45.7439 0.428874C45.0563 0.144375 44.3326 0 43.5928 0C41.3089 0 39.2685 1.36337 38.3944 3.47337C37.459 5.73161 38.1098 8.25698 39.8298 9.80723L39.3233 11.0301L37.8818 14.5102C36.2286 14.0165 34.4784 13.7498 32.6669 13.7498C30.8554 13.7498 29.1052 14.0165 27.452 14.5102L26.0105 11.0301L25.504 9.80723C27.224 8.25698 27.8748 5.73161 26.9394 3.47324C26.0653 1.36337 24.0247 0 21.7409 0C21.0011 0 20.2773 0.144375 19.5898 0.429249C16.7244 1.61625 15.3587 4.91312 16.5457 7.77874C17.4197 9.88861 19.4602 11.2521 21.7439 11.2521C21.8429 11.2521 21.9416 11.2491 22.0399 11.244L22.5477 12.4697L23.9887 15.9487C20.8752 17.6388 18.3056 20.2083 16.6156 23.3218L13.1366 21.8808L11.9094 21.3726C12.0294 19.0602 10.7039 16.8143 8.4457 15.8788C7.7582 15.5941 7.03445 15.4497 6.29458 15.4497C4.01071 15.4497 1.97034 16.8131 1.09621 18.9231C-0.0906587 21.7886 1.27496 25.0856 4.14046 26.2726C4.82796 26.5573 5.55171 26.7017 6.29158 26.7017C7.92333 26.7017 9.43057 26.0053 10.4772 24.8383L11.6972 25.3437L15.1773 26.7852C14.6834 28.4383 14.4169 30.1886 14.4169 32.0001C14.4169 33.8116 14.6836 35.5618 15.1773 37.2149L11.6971 38.6562L10.4771 39.1615C9.43045 37.9946 7.9232 37.2982 6.29145 37.2982C5.55158 37.2982 4.82783 37.4426 4.14033 37.7274C1.27496 38.9144 -0.0907838 42.2113 1.09621 45.0769C1.97021 47.1868 4.01071 48.5503 6.29445 48.5503C7.03433 48.5503 7.75808 48.4059 8.44558 48.121C10.7038 47.1857 12.0293 44.9398 11.9093 42.6274L13.1364 42.1192L16.6154 40.6782C18.3056 43.7917 20.8751 46.3613 23.9885 48.0513L22.5476 51.5303L22.0398 52.756C21.9414 52.7509 21.8428 52.7479 21.7438 52.7479C19.4599 52.7479 17.4196 54.1113 16.5454 56.2213C15.3586 59.0868 16.7242 62.3838 19.5897 63.5708C20.2772 63.8555 21.0009 63.9999 21.7408 63.9999C24.0247 63.9999 26.065 62.6365 26.9392 60.5265C27.8745 58.2683 27.2238 55.7429 25.5038 54.1926L26.0103 52.9698L27.4518 49.4897C29.1049 49.9834 30.8552 50.25 32.6667 50.25C34.4781 50.25 36.2284 49.9834 37.8815 49.4897L39.323 52.9698L39.8295 54.1926C38.1095 55.7429 37.4588 58.2683 38.3941 60.5266C39.2681 62.6365 41.3086 64 43.5924 64C44.3323 64 45.056 63.8556 45.7435 63.5708C48.6089 62.3838 49.9746 59.0869 48.7876 56.2213C47.9136 54.1114 45.8731 52.7479 43.5894 52.7479C43.4904 52.7479 43.3918 52.7509 43.2934 52.756L42.7856 51.5303L41.3446 48.0513C44.4581 46.3612 47.0278 43.7917 48.7178 40.6782L52.1967 42.1192L53.4239 42.6274C53.3039 44.9398 54.6294 47.1857 56.8876 48.1212C57.5751 48.4059 58.2989 48.5503 59.0387 48.5503C61.3226 48.5503 63.363 47.1869 64.2371 45.0769C65.4243 42.2113 64.0588 38.9143 61.1932 37.7273ZM32.6669 46.4998C24.6717 46.4998 18.1669 39.995 18.1669 31.9998C18.1669 24.0046 24.6717 17.4998 32.6669 17.4998C40.6621 17.4998 47.1669 24.0046 47.1669 31.9998C47.1669 39.995 40.662 46.4998 32.6669 46.4998Z" fill="url(#paint0_linear_22728_11388)"/>
            <path d="M32.6667 21.25C26.7392 21.25 21.9167 26.0725 21.9167 32C21.9167 37.9275 26.7392 42.75 32.6667 42.75C38.5942 42.75 43.4167 37.9275 43.4167 32C43.4167 26.0725 38.5942 21.25 32.6667 21.25ZM34.5417 36.125H30.7917V27.875H34.5417V36.125Z" fill="black"/>
            <path d="M32.6667 21.25C26.7392 21.25 21.9167 26.0725 21.9167 32C21.9167 37.9275 26.7392 42.75 32.6667 42.75C38.5942 42.75 43.4167 37.9275 43.4167 32C43.4167 26.0725 38.5942 21.25 32.6667 21.25ZM34.5417 36.125H30.7917V27.875H34.5417V36.125Z" fill="url(#paint1_linear_22728_11388)"/>
        </g>
        <defs>
            <linearGradient id="paint0_linear_22728_11388" x1="32.6668" y1="0" x2="32.6668" y2="64" gradientUnits="userSpaceOnUse">
                <stop stop-color="#EF8080"/>
                <stop offset="1" stop-color="#F0145A"/>
            </linearGradient>
            <linearGradient id="paint1_linear_22728_11388" x1="32.6667" y1="21.25" x2="32.6667" y2="42.75" gradientUnits="userSpaceOnUse">
                <stop stop-color="#EF8080"/>
                <stop offset="1" stop-color="#F0145A"/>
            </linearGradient>
            <clipPath id="clip0_22728_11388">
                <rect width="64" height="64" fill="white" transform="translate(0.666748)"/>
            </clipPath>
        </defs>
    </symbol>

    <symbol id="services-trust" viewBox="0 0 64 64">
        <path d="M42.0057 56H23.0057V62H42.0057V56Z" fill="black"/>
        <path d="M42.0057 56H23.0057V62H42.0057V56Z" fill="url(#paint0_linear_22728_11395)"/>
        <path d="M15.1727 2.45168L1.73767 15.8867L5.27321 19.4223L18.7083 5.98722L15.1727 2.45168Z" fill="black"/>
        <path d="M15.1727 2.45168L1.73767 15.8867L5.27321 19.4223L18.7083 5.98722L15.1727 2.45168Z" fill="url(#paint1_linear_22728_11395)"/>
        <path d="M49.1127 2.31995L45.5771 5.85547L59.0122 19.2905L62.5477 15.755L49.1127 2.31995Z" fill="black"/>
        <path d="M49.1127 2.31995L45.5771 5.85547L59.0122 19.2905L62.5477 15.755L49.1127 2.31995Z" fill="url(#paint2_linear_22728_11395)"/>
        <path d="M44.5564 9.70843L41.8651 9.59436C41.089 9.48482 40.2981 9.55713 39.5548 9.80558C38.8115 10.054 38.1361 10.4718 37.5819 11.026L32.0775 16.5305L26.3239 10.7769C25.8244 10.2888 25.2011 9.94628 24.5214 9.78612C23.8416 9.62596 23.131 9.65426 22.4661 9.86798C21.8388 10.0587 21.1715 10.0755 20.5355 9.9164C19.8995 9.75732 19.3186 9.42842 18.8551 8.96483L18.0012 8.11095L7.39453 18.7175L9.12253 20.4455L9.00845 23.1368C8.89891 23.9128 8.97122 24.7037 9.21966 25.447C9.46811 26.1903 9.8859 26.8657 10.4401 27.4199L20.0525 37.0324C20.181 35.7705 20.7856 34.6051 21.7432 33.7734L18.7482 30.7785L19.4553 30.0714L22.5836 33.1996C23.027 32.9472 23.5068 32.7649 24.0059 32.6591V28.9651L22.2838 27.243L22.9908 26.5358L24.0059 27.5509V22.201C23.9948 21.3168 24.3086 20.4592 24.8879 19.791C25.4672 19.1228 26.2716 18.6904 27.1485 18.576C27.4792 18.544 27.8128 18.559 28.1393 18.6208L26.9098 17.3914L27.6169 16.6843L29.4131 18.4804C29.7312 17.864 30.2233 17.3547 30.8283 17.0154C31.4333 16.6762 32.1246 16.5221 32.8165 16.5721C33.6513 16.6697 34.4258 17.0562 35.0057 17.6647C35.5855 18.2733 35.9342 19.0655 35.9913 19.9041C36.5596 19.634 37.1894 19.5194 37.8165 19.5721C38.7075 19.6788 39.5273 20.1126 40.1166 20.7895C40.7059 21.4663 41.0229 22.3379 41.0059 23.2352V26.6591C41.916 26.8491 42.7551 27.289 43.4292 27.9293C44.1032 28.5696 44.5855 29.3851 44.822 30.2842L47.6105 27.4957L48.3176 28.2029L45.0023 31.5181C45.0024 31.5319 45.0059 31.5447 45.0059 31.5585V34.8785C45.9043 34.7845 46.7437 34.3864 47.3848 33.7501L54.225 26.9099C54.7131 26.4104 55.0556 25.7871 55.2158 25.1073C55.3759 24.4276 55.3476 23.7169 55.1339 23.0521C54.9431 22.4248 54.9264 21.7575 55.0855 21.1215C55.2445 20.4854 55.5735 19.9046 56.0371 19.441L56.8909 18.5871L46.2844 7.98047L44.5564 9.70843Z" fill="black"/>
        <path d="M44.5564 9.70843L41.8651 9.59436C41.089 9.48482 40.2981 9.55713 39.5548 9.80558C38.8115 10.054 38.1361 10.4718 37.5819 11.026L32.0775 16.5305L26.3239 10.7769C25.8244 10.2888 25.2011 9.94628 24.5214 9.78612C23.8416 9.62596 23.131 9.65426 22.4661 9.86798C21.8388 10.0587 21.1715 10.0755 20.5355 9.9164C19.8995 9.75732 19.3186 9.42842 18.8551 8.96483L18.0012 8.11095L7.39453 18.7175L9.12253 20.4455L9.00845 23.1368C8.89891 23.9128 8.97122 24.7037 9.21966 25.447C9.46811 26.1903 9.8859 26.8657 10.4401 27.4199L20.0525 37.0324C20.181 35.7705 20.7856 34.6051 21.7432 33.7734L18.7482 30.7785L19.4553 30.0714L22.5836 33.1996C23.027 32.9472 23.5068 32.7649 24.0059 32.6591V28.9651L22.2838 27.243L22.9908 26.5358L24.0059 27.5509V22.201C23.9948 21.3168 24.3086 20.4592 24.8879 19.791C25.4672 19.1228 26.2716 18.6904 27.1485 18.576C27.4792 18.544 27.8128 18.559 28.1393 18.6208L26.9098 17.3914L27.6169 16.6843L29.4131 18.4804C29.7312 17.864 30.2233 17.3547 30.8283 17.0154C31.4333 16.6762 32.1246 16.5221 32.8165 16.5721C33.6513 16.6697 34.4258 17.0562 35.0057 17.6647C35.5855 18.2733 35.9342 19.0655 35.9913 19.9041C36.5596 19.634 37.1894 19.5194 37.8165 19.5721C38.7075 19.6788 39.5273 20.1126 40.1166 20.7895C40.7059 21.4663 41.0229 22.3379 41.0059 23.2352V26.6591C41.916 26.8491 42.7551 27.289 43.4292 27.9293C44.1032 28.5696 44.5855 29.3851 44.822 30.2842L47.6105 27.4957L48.3176 28.2029L45.0023 31.5181C45.0024 31.5319 45.0059 31.5447 45.0059 31.5585V34.8785C45.9043 34.7845 46.7437 34.3864 47.3848 33.7501L54.225 26.9099C54.7131 26.4104 55.0556 25.7871 55.2158 25.1073C55.3759 24.4276 55.3476 23.7169 55.1339 23.0521C54.9431 22.4248 54.9264 21.7575 55.0855 21.1215C55.2445 20.4854 55.5735 19.9046 56.0371 19.441L56.8909 18.5871L46.2844 7.98047L44.5564 9.70843Z" fill="url(#paint3_linear_22728_11395)"/>
        <path d="M29.8804 21.6901C29.8044 21.0405 29.476 20.4468 28.966 20.0373C28.4559 19.6278 27.8053 19.4353 27.1546 19.5015C26.5234 19.5886 25.9463 19.9046 25.5329 20.3894C25.1194 20.8742 24.8986 21.4941 24.9124 22.1311V33.4885C23.8515 33.4885 22.8341 33.9099 22.0839 34.66C21.3338 35.4102 20.9124 36.4276 20.9124 37.4885V47.1619C20.9205 47.8603 21.1189 48.5432 21.4864 49.1371C21.8538 49.7311 22.3763 50.2135 22.9976 50.5325C23.576 50.8412 24.0597 51.3012 24.3969 51.8634C24.7342 52.4256 24.9123 53.0689 24.9124 53.7245V54.9321H39.9124V52.4885L41.896 50.6661C42.5222 50.1948 43.0303 49.5844 43.3803 48.8831C43.7302 48.1818 43.9123 47.4088 43.9124 46.6251V31.4885C43.9124 30.4276 43.4909 29.4102 42.7408 28.66C41.9906 27.9099 40.9732 27.4885 39.9124 27.4885V23.1659C39.9293 22.5187 39.7062 21.888 39.286 21.3955C38.8657 20.903 38.2781 20.5834 37.6362 20.4983C37.0063 20.4426 36.3787 20.6285 35.8807 21.0183C35.3826 21.408 35.0513 21.9725 34.9539 22.5974H35.4124V38.0407H34.4124V22.5974H34.9124V20.1659C34.9293 19.5187 34.7062 18.888 34.286 18.3955C33.8657 17.903 33.2781 17.5834 32.6362 17.4983C32.2904 17.4673 31.942 17.5086 31.613 17.6196C31.2841 17.7306 30.9819 17.909 30.7256 18.1432C30.4694 18.3775 30.2647 18.6625 30.1247 18.9802C29.9847 19.2979 29.9124 19.6413 29.9124 19.9885V21.6901H30.4124V37.1335H29.4124V21.6901H29.8804ZM25.3115 42.0407H24.3115V34.0407H25.3115V42.0407ZM39.4124 27.799H40.4124V38.2423H39.4124V27.799Z" fill="black"/>
        <path d="M29.8804 21.6901C29.8044 21.0405 29.476 20.4468 28.966 20.0373C28.4559 19.6278 27.8053 19.4353 27.1546 19.5015C26.5234 19.5886 25.9463 19.9046 25.5329 20.3894C25.1194 20.8742 24.8986 21.4941 24.9124 22.1311V33.4885C23.8515 33.4885 22.8341 33.9099 22.0839 34.66C21.3338 35.4102 20.9124 36.4276 20.9124 37.4885V47.1619C20.9205 47.8603 21.1189 48.5432 21.4864 49.1371C21.8538 49.7311 22.3763 50.2135 22.9976 50.5325C23.576 50.8412 24.0597 51.3012 24.3969 51.8634C24.7342 52.4256 24.9123 53.0689 24.9124 53.7245V54.9321H39.9124V52.4885L41.896 50.6661C42.5222 50.1948 43.0303 49.5844 43.3803 48.8831C43.7302 48.1818 43.9123 47.4088 43.9124 46.6251V31.4885C43.9124 30.4276 43.4909 29.4102 42.7408 28.66C41.9906 27.9099 40.9732 27.4885 39.9124 27.4885V23.1659C39.9293 22.5187 39.7062 21.888 39.286 21.3955C38.8657 20.903 38.2781 20.5834 37.6362 20.4983C37.0063 20.4426 36.3787 20.6285 35.8807 21.0183C35.3826 21.408 35.0513 21.9725 34.9539 22.5974H35.4124V38.0407H34.4124V22.5974H34.9124V20.1659C34.9293 19.5187 34.7062 18.888 34.286 18.3955C33.8657 17.903 33.2781 17.5834 32.6362 17.4983C32.2904 17.4673 31.942 17.5086 31.613 17.6196C31.2841 17.7306 30.9819 17.909 30.7256 18.1432C30.4694 18.3775 30.2647 18.6625 30.1247 18.9802C29.9847 19.2979 29.9124 19.6413 29.9124 19.9885V21.6901H30.4124V37.1335H29.4124V21.6901H29.8804ZM25.3115 42.0407H24.3115V34.0407H25.3115V42.0407ZM39.4124 27.799H40.4124V38.2423H39.4124V27.799Z" fill="url(#paint4_linear_22728_11395)"/>
        <defs>
            <linearGradient id="paint0_linear_22728_11395" x1="32.5057" y1="56" x2="32.5057" y2="62" gradientUnits="userSpaceOnUse">
                <stop stop-color="#EF8080"/>
                <stop offset="1" stop-color="#F0145A"/>
            </linearGradient>
            <linearGradient id="paint1_linear_22728_11395" x1="8.45519" y1="9.1692" x2="11.9907" y2="12.7047" gradientUnits="userSpaceOnUse">
                <stop stop-color="#EF8080"/>
                <stop offset="1" stop-color="#F0145A"/>
            </linearGradient>
            <linearGradient id="paint2_linear_22728_11395" x1="47.3449" y1="4.08771" x2="60.78" y2="17.5228" gradientUnits="userSpaceOnUse">
                <stop stop-color="#EF8080"/>
                <stop offset="1" stop-color="#F0145A"/>
            </linearGradient>
            <linearGradient id="paint3_linear_22728_11395" x1="32.1427" y1="7.98047" x2="32.1427" y2="37.0324" gradientUnits="userSpaceOnUse">
                <stop stop-color="#EF8080"/>
                <stop offset="1" stop-color="#F0145A"/>
            </linearGradient>
            <linearGradient id="paint4_linear_22728_11395" x1="32.4124" y1="17.4883" x2="32.4124" y2="54.9321" gradientUnits="userSpaceOnUse">
                <stop stop-color="#EF8080"/>
                <stop offset="1" stop-color="#F0145A"/>
            </linearGradient>
        </defs>
    </symbol>

    <symbol id="services-protection" viewBox="0 0 65 64">
        <path d="M41.5652 37.6961C43.9174 37.6961 46.2431 38.2844 48.2912 39.3974C48.6631 39.5979 49.0044 39.8368 49.3529 40.0667C52.7142 33.4869 54.488 26.5278 54.488 19.7388C54.488 19.3573 54.488 18.9634 54.4758 18.5696C54.4512 18.0158 54.0573 17.5358 53.5034 17.4127C46.0696 15.7881 39.3373 11.7634 34.045 5.78193L33.2573 4.88342C33.0234 4.61268 32.6912 4.465 32.3342 4.465C31.9527 4.41579 31.6573 4.60036 31.4234 4.85885L30.2173 6.1881C25.1958 11.7142 18.8696 15.5296 11.9281 17.2281L11.1281 17.425C10.5865 17.5481 10.205 18.0281 10.1927 18.5819C9.74962 35.8865 19.965 48.3296 24.3712 52.8834C25.5641 54.1082 26.8941 55.3256 28.1588 56.3319C27.6844 54.9011 27.4113 53.3957 27.4113 51.8499C27.4113 44.0452 33.7605 37.6961 41.5652 37.6961Z" fill="url(#paint0_linear_22728_11401)"/>
        <path d="M47.1156 41.5593C45.4172 40.6363 43.4972 40.1562 41.5649 40.1562C35.1156 40.1562 29.8726 45.3993 29.8726 51.8486C29.8726 54.027 30.4634 56.1562 31.5957 57.9778C33.7495 61.4609 37.4665 63.5409 41.5649 63.5409C48.0018 63.5409 53.2572 58.2978 53.2572 51.8486C53.2572 47.5409 50.9064 43.6024 47.1156 41.5593ZM47.5531 50.2918L38.4082 57.4084L35.2862 52.5249C34.9197 51.9522 35.0873 51.1914 35.66 50.8254C36.2334 50.4588 36.9948 50.6277 37.3596 51.1992L39.0272 53.8074L46.0411 48.3495C46.5765 47.9318 47.3505 48.0273 47.7682 48.5646C48.1859 49.1013 48.0891 49.8747 47.5531 50.2918Z" fill="url(#paint1_linear_22728_11401)"/>
        <defs>
            <linearGradient id="paint0_linear_22728_11401" x1="32.3334" y1="4.45703" x2="32.3334" y2="56.3319" gradientUnits="userSpaceOnUse">
                <stop stop-color="#EF8080"/>
                <stop offset="1" stop-color="#F0145A"/>
            </linearGradient>
            <linearGradient id="paint1_linear_22728_11401" x1="41.5649" y1="40.1562" x2="41.5649" y2="63.5409" gradientUnits="userSpaceOnUse">
                <stop stop-color="#EF8080"/>
                <stop offset="1" stop-color="#F0145A"/>
            </linearGradient>
        </defs>
    </symbol>

    <symbol id="services-court" viewBox="0 0 65 64">
        <path d="M41.0187 20.389C41.7507 21.121 42.9367 21.123 43.6687 20.389L46.2767 17.781C47.0077 17.049 47.0057 15.863 46.2767 15.13L39.6937 8.549C38.9637 7.817 37.7777 7.817 37.0457 8.549L34.4367 11.157C33.7067 11.889 33.7067 13.075 34.4367 13.805L41.0187 20.389Z" fill="url(#paint0_linear_22728_11407)"/>
        <path d="M25.4328 36.2652C26.1638 36.9942 27.3498 36.9942 28.0808 36.2652L30.6898 33.6553C31.4218 32.9253 31.4218 31.7383 30.6898 31.0063L24.1068 24.4233C23.3758 23.6933 22.1898 23.6913 21.4578 24.4233L18.8498 27.0312C18.1178 27.7632 18.1198 28.9492 18.8498 29.6812L25.4328 36.2652Z" fill="url(#paint1_linear_22728_11407)"/>
        <path d="M55.3149 36.8912L52.6679 34.2412C51.9339 33.5112 50.7509 33.5112 50.0199 34.2412L48.8589 35.4012L37.6539 24.1942L40.0809 21.7662L33.3479 15.0352L30.9199 17.4632L27.8279 20.5532L25.4539 22.9272L32.1859 29.6602L34.5629 27.2872L45.7659 38.4922L44.7179 39.5412C43.9859 40.2702 43.9839 41.4572 44.7179 42.1892L47.3649 44.8372C48.0989 45.5712 49.2839 45.5712 50.0149 44.8372L55.3139 39.5402C56.0469 38.8072 56.0469 37.6232 55.3149 36.8912Z" fill="url(#paint2_linear_22728_11407)"/>
        <path d="M35.7437 44.9425C35.7437 43.7435 34.7717 42.7695 33.5707 42.7695H16.6027C15.4027 42.7695 14.4297 43.7435 14.4297 44.9425V48.4695H9.66675V55.8585H40.2247V48.4695H35.7437V44.9425Z" fill="url(#paint3_linear_22728_11407)"/>
            <linearGradient id="paint0_linear_22728_11407" x1="40.3567" y1="8" x2="40.3567" y2="20.9388" gradientUnits="userSpaceOnUse">
                <stop stop-color="#EF8080"/>
                <stop offset="1" stop-color="#F0145A"/>
            </linearGradient>
            <linearGradient id="paint1_linear_22728_11407" x1="24.7701" y1="23.875" x2="24.7701" y2="36.812" gradientUnits="userSpaceOnUse">
                <stop stop-color="#EF8080"/>
                <stop offset="1" stop-color="#F0145A"/>
            </linearGradient>
            <linearGradient id="paint2_linear_22728_11407" x1="40.6588" y1="15.0352" x2="40.6588" y2="45.3877" gradientUnits="userSpaceOnUse">
                <stop stop-color="#EF8080"/>
                <stop offset="1" stop-color="#F0145A"/>
            </linearGradient>
            <linearGradient id="paint3_linear_22728_11407" x1="24.9457" y1="42.7695" x2="24.9457" y2="55.8585" gradientUnits="userSpaceOnUse">
                <stop stop-color="#EF8080"/>
                <stop offset="1" stop-color="#F0145A"/>
            </linearGradient>
    </symbol>


</svg>
